<mxfile host="app.diagrams.net" modified="2023-09-07T18:10:23.605Z" agent="Mozilla/5.0 (Windows NT 10.0; Win64; x64) AppleWebKit/537.36 (KHTML, like Gecko) Chrome/114.0.0.0 Safari/537.36" etag="igKgsdjXZWdR6ecXDtbn" version="21.7.2" type="device">
  <diagram name="Página-1" id="Q0y6mEWlzCbAEMoq306K">
    <mxGraphModel dx="880" dy="484" grid="1" gridSize="10" guides="1" tooltips="1" connect="1" arrows="1" fold="1" page="1" pageScale="1" pageWidth="827" pageHeight="1169" math="0" shadow="0">
      <root>
        <mxCell id="0" />
        <mxCell id="1" parent="0" />
        <mxCell id="pNR-VduHB-ReV_1o92-V-3" style="edgeStyle=orthogonalEdgeStyle;rounded=0;orthogonalLoop=1;jettySize=auto;html=1;entryX=0.5;entryY=0;entryDx=0;entryDy=0;" edge="1" parent="1" source="pNR-VduHB-ReV_1o92-V-1" target="pNR-VduHB-ReV_1o92-V-2">
          <mxGeometry relative="1" as="geometry" />
        </mxCell>
        <mxCell id="pNR-VduHB-ReV_1o92-V-17" value="Text" style="edgeLabel;html=1;align=center;verticalAlign=middle;resizable=0;points=[];" vertex="1" connectable="0" parent="pNR-VduHB-ReV_1o92-V-3">
          <mxGeometry x="-0.2" y="1" relative="1" as="geometry">
            <mxPoint as="offset" />
          </mxGeometry>
        </mxCell>
        <mxCell id="pNR-VduHB-ReV_1o92-V-1" value="Inicio" style="ellipse;whiteSpace=wrap;html=1;" vertex="1" parent="1">
          <mxGeometry x="100" y="130" width="120" height="80" as="geometry" />
        </mxCell>
        <mxCell id="pNR-VduHB-ReV_1o92-V-9" style="edgeStyle=orthogonalEdgeStyle;rounded=0;orthogonalLoop=1;jettySize=auto;html=1;entryX=0.5;entryY=0;entryDx=0;entryDy=0;" edge="1" parent="1" source="pNR-VduHB-ReV_1o92-V-2" target="pNR-VduHB-ReV_1o92-V-4">
          <mxGeometry relative="1" as="geometry" />
        </mxCell>
        <mxCell id="pNR-VduHB-ReV_1o92-V-2" value="Inicia sesión" style="" vertex="1" parent="1">
          <mxGeometry x="105" y="250" width="110" height="50" as="geometry" />
        </mxCell>
        <mxCell id="pNR-VduHB-ReV_1o92-V-6" value="" style="edgeStyle=orthogonalEdgeStyle;rounded=0;orthogonalLoop=1;jettySize=auto;html=1;" edge="1" parent="1" source="pNR-VduHB-ReV_1o92-V-4" target="pNR-VduHB-ReV_1o92-V-5">
          <mxGeometry relative="1" as="geometry" />
        </mxCell>
        <mxCell id="pNR-VduHB-ReV_1o92-V-4" value="   Acceder a la sección de tips&#xa;de tratamiento&#xa;" style="" vertex="1" parent="1">
          <mxGeometry x="67" y="340" width="186" height="124" as="geometry" />
        </mxCell>
        <mxCell id="pNR-VduHB-ReV_1o92-V-8" value="" style="edgeStyle=orthogonalEdgeStyle;rounded=0;orthogonalLoop=1;jettySize=auto;html=1;" edge="1" parent="1" source="pNR-VduHB-ReV_1o92-V-5">
          <mxGeometry relative="1" as="geometry">
            <mxPoint x="526" y="402" as="targetPoint" />
          </mxGeometry>
        </mxCell>
        <mxCell id="pNR-VduHB-ReV_1o92-V-13" value="Si" style="edgeLabel;html=1;align=center;verticalAlign=middle;resizable=0;points=[];" vertex="1" connectable="0" parent="pNR-VduHB-ReV_1o92-V-8">
          <mxGeometry x="-0.2728" relative="1" as="geometry">
            <mxPoint as="offset" />
          </mxGeometry>
        </mxCell>
        <mxCell id="pNR-VduHB-ReV_1o92-V-11" style="edgeStyle=orthogonalEdgeStyle;rounded=0;orthogonalLoop=1;jettySize=auto;html=1;" edge="1" parent="1" source="pNR-VduHB-ReV_1o92-V-5">
          <mxGeometry relative="1" as="geometry">
            <mxPoint x="426" y="530" as="targetPoint" />
          </mxGeometry>
        </mxCell>
        <mxCell id="pNR-VduHB-ReV_1o92-V-12" value="No" style="edgeLabel;html=1;align=center;verticalAlign=middle;resizable=0;points=[];" vertex="1" connectable="0" parent="pNR-VduHB-ReV_1o92-V-11">
          <mxGeometry x="0.3" y="-2" relative="1" as="geometry">
            <mxPoint as="offset" />
          </mxGeometry>
        </mxCell>
        <mxCell id="pNR-VduHB-ReV_1o92-V-5" value="¿Tips&lt;br&gt;Disponibles?" style="rhombus;whiteSpace=wrap;html=1;" vertex="1" parent="1">
          <mxGeometry x="386" y="362" width="80" height="80" as="geometry" />
        </mxCell>
        <mxCell id="pNR-VduHB-ReV_1o92-V-16" style="edgeStyle=orthogonalEdgeStyle;rounded=0;orthogonalLoop=1;jettySize=auto;html=1;entryX=1;entryY=0.5;entryDx=0;entryDy=0;exitX=0.5;exitY=1;exitDx=0;exitDy=0;" edge="1" parent="1" source="pNR-VduHB-ReV_1o92-V-10" target="pNR-VduHB-ReV_1o92-V-14">
          <mxGeometry relative="1" as="geometry">
            <mxPoint x="590" y="610" as="targetPoint" />
            <Array as="points">
              <mxPoint x="590" y="570" />
            </Array>
          </mxGeometry>
        </mxCell>
        <mxCell id="pNR-VduHB-ReV_1o92-V-10" value="Muestra Tips del tratamiento" style="rounded=0;whiteSpace=wrap;html=1;" vertex="1" parent="1">
          <mxGeometry x="530" y="372" width="120" height="60" as="geometry" />
        </mxCell>
        <mxCell id="pNR-VduHB-ReV_1o92-V-14" value="Fin" style="ellipse;whiteSpace=wrap;html=1;" vertex="1" parent="1">
          <mxGeometry x="366" y="530" width="120" height="80" as="geometry" />
        </mxCell>
      </root>
    </mxGraphModel>
  </diagram>
</mxfile>
